<svg width="12" height="12" viewBox="0 0 12 12" fill="none" xmlns="http://www.w3.org/2000/svg">
<path fill-rule="evenodd" clip-rule="evenodd" d="M7.2733 2.629H1.45476C0.654682 2.629 7.9155e-05 3.2836 7.9155e-05 4.08368V9.90222C7.9155e-05 10.7023 0.654682 11.3569 1.45476 11.3569H7.2733C8.07338 11.3569 8.72798 10.7023 8.72798 9.90222V4.08368C8.72798 3.2836 8.07338 2.629 7.2733 2.629ZM9.78793 0.000318076H3.96939C3.16931 0.000318076 2.51471 0.654921 2.51471 1.455V2.05805H7.27337C8.38752 2.05805 9.29907 2.9695 9.29907 4.08375V8.7279H9.788C10.5881 8.7279 11.2427 8.0733 11.2427 7.27322V1.45468C11.2427 0.654603 10.5881 0 9.788 0L9.78793 0.000318076Z" fill="#78909C"/>
</svg>
