<svg width="21" height="25" viewBox="0 0 21 25" fill="none" xmlns="http://www.w3.org/2000/svg">
<path d="M19.2616 17.1834C19.164 17.2605 19.1064 17.3011 19.0536 17.3464C18.5591 17.7731 18.0692 18.2052 17.5687 18.6246C17.4474 18.7193 17.3801 18.8676 17.3886 19.0212C17.3778 20.0335 17.3605 21.0459 17.3363 22.0582C17.3211 22.7261 16.9764 23.0679 16.3026 23.0988C16.1883 23.1042 16.0741 23.1091 15.9608 23.1091C12.7926 23.1136 9.62432 23.1171 6.45565 23.1193C5.25555 23.1193 4.05526 23.0984 2.8552 23.0778C2.39919 23.07 2.07397 22.803 1.97335 22.3737H1.97352C1.94859 22.245 1.93812 22.114 1.94231 21.9831C1.92818 19.7292 1.90464 17.4761 1.90621 15.2221C1.90953 11.1721 1.92156 7.12185 1.94231 3.07151C1.9376 2.92573 1.95138 2.77977 1.98329 2.63747C2.10971 2.16579 2.42273 1.95392 3.02768 1.95008C4.77518 1.93351 6.52228 1.91538 8.26996 1.91485C10.9565 1.91485 13.643 1.9234 16.3296 1.94066C16.9706 1.9445 17.3173 2.30582 17.3344 2.95331C17.3612 3.98164 17.3729 5.01032 17.3965 6.03917C17.3965 6.13055 17.4116 6.25401 17.4702 6.30581C18.0429 6.81463 18.626 7.31114 19.2421 7.84246C19.2505 7.7619 19.2567 7.73121 19.2567 7.70034C19.2567 6.06726 19.2552 4.43417 19.2519 2.80091C19.2519 1.99334 18.934 1.32251 18.3451 0.786275C17.8066 0.293653 17.1944 -0.0163838 16.4302 0.000669393C15.4019 0.0245599 14.3727 0.00450581 13.3433 0.00555231C9.92209 0.00938868 6.50017 0.0182823 3.07883 0.0142713C2.32831 0.0133993 1.63493 0.158835 1.05879 0.671532C0.411304 1.24768 0.00466238 1.93074 0.00707303 2.83804C0.0154434 6.0718 -0.00408729 9.30573 0.000795627 12.5387C0.00567854 15.7721 0.0325333 19.0059 0.037939 22.2393C0.037939 23.0431 0.337177 23.7012 0.916845 24.2359C1.4496 24.7241 2.05592 25.0024 2.81238 25C7.45869 24.9839 12.1054 24.9927 16.7518 24.9888H16.7516C16.9056 24.9895 17.0587 24.9649 17.2046 24.9159C18.5273 24.4535 19.2377 23.4745 19.2554 22.0718C19.269 20.8145 19.2613 19.5566 19.2627 18.2994C19.2623 17.944 19.2618 17.588 19.2618 17.1833L19.2616 17.1834Z" fill="#78909C"/>
<path d="M19.1179 11.1335C17.2716 9.53847 15.4247 7.94356 13.577 6.34837H13.5768C13.4425 6.22439 13.2517 6.18254 13.0779 6.23904C12.7849 6.31716 12.6078 6.5163 12.5861 6.81224C12.553 7.26736 12.5446 7.71989 12.5373 8.17693C12.5294 8.64862 12.5373 9.13253 12.5373 9.62083H12.256C10.4351 9.62083 8.61422 9.62187 6.79319 9.62379V9.62362C6.52604 9.61978 6.26883 9.72458 6.08048 9.91396C5.89215 10.1033 5.78874 10.3611 5.79415 10.6281V14.4507C5.79415 14.9536 6.23743 15.3906 6.73894 15.3906C8.54555 15.3906 10.3483 15.3814 12.1526 15.3814H12.5199V15.734C12.5286 16.4175 12.5359 17.1109 12.5492 17.7964H12.549C12.5488 17.9439 12.5635 18.0911 12.5924 18.2358C12.7086 18.752 13.2961 18.9482 13.6921 18.6045C15.917 16.672 18.1411 14.7386 20.3643 12.805C20.4663 12.7161 20.5596 12.6195 20.6705 12.5159C20.5929 12.4422 20.5362 12.3851 20.4752 12.3318C20.0239 11.9324 19.5743 11.5291 19.1178 11.1336L19.1179 11.1335Z" fill="#78909C"/>
</svg>
