<svg width="30" height="30" viewBox="0 0 30 30" fill="none" xmlns="http://www.w3.org/2000/svg">
<path d="M14.755 1.4132C13.6077 2.10275 12.6118 3.01743 11.8271 4.10214L1.40573 18.3591C0.514461 19.5715 0.0347681 21.0374 0.0374002 22.542C0.0376195 22.9101 0.0656289 23.2777 0.120992 23.6414C0.408967 25.5012 1.42322 27.1709 2.94079 28.2838C4.45837 29.3967 6.35558 29.862 8.21605 29.5775C10.0765 29.293 11.7479 28.2823 12.8637 26.7667L21.8509 14.5768C22.7759 13.3157 22.9578 11.657 22.328 10.2254C21.6982 8.79384 20.3526 7.80695 18.7981 7.63648C17.2433 7.46601 15.7159 8.13803 14.7909 9.39913L6.87929 20.2356C6.67906 20.5102 6.59569 20.8531 6.64777 21.1892C6.69985 21.5251 6.88301 21.8269 7.1572 22.0282L7.57254 22.3269C7.84716 22.5271 8.19026 22.6105 8.52616 22.5584C8.86228 22.5063 9.16383 22.3232 9.36516 22.049L17.2796 11.2153C17.4801 10.9309 17.7864 10.739 18.13 10.6827C18.4736 10.6267 18.8252 10.711 19.1057 10.9167C19.3865 11.1224 19.5727 11.4322 19.6226 11.7767C19.6725 12.1211 19.5817 12.4712 19.371 12.748L10.3865 24.9379C9.52809 26.0765 8.13152 26.6763 6.71462 26.5148C5.29771 26.353 4.07184 25.4543 3.49175 24.1516C2.91167 22.8489 3.06351 21.3366 3.89133 20.1754L14.3155 5.90323C15.7667 3.91694 18.1675 2.85543 20.6132 3.11911C23.059 3.38258 25.1786 4.93079 26.1734 7.18076C27.1679 9.43073 26.8869 12.0405 25.4357 14.0269L19.7021 21.8758C19.5019 22.1507 19.4185 22.4936 19.4706 22.8297C19.5226 23.1656 19.7058 23.4673 19.98 23.6685L20.3953 23.9672L20.3953 23.9674C20.6702 24.168 21.0135 24.2514 21.3498 24.1987C21.6862 24.1459 21.9877 23.9617 22.188 23.6864L27.9361 15.8437C29.4933 13.7123 30.1406 11.0496 29.7355 8.44122C29.3305 5.83283 27.9064 3.49177 25.7761 1.93286C24.1935 0.771962 22.304 0.10348 20.3435 0.0111034C18.3832 -0.0814579 16.4389 0.406305 14.7542 1.41311L14.755 1.4132Z" fill="#78909C"/>
</svg>
