<svg width="25" height="25" viewBox="0 0 25 25" fill="none" xmlns="http://www.w3.org/2000/svg">
<path fill-rule="evenodd" clip-rule="evenodd" d="M21.9551 12.1974C21.9279 11.3469 22.297 10.5029 23.0355 10.0803L23.2505 9.95734C24.2145 9.40575 24.5444 8.17432 23.9853 7.21463L22.8457 5.25842C22.2927 4.30929 21.0778 3.98376 20.1243 4.52926L19.8647 4.67778C19.1341 5.09584 18.23 4.9933 17.5148 4.54931C17.3313 4.4354 17.1436 4.32756 16.9519 4.22607C16.201 3.82842 15.6533 3.08968 15.6533 2.23999V2C15.6533 0.895432 14.7578 0 13.6533 0H11.3467C10.2422 0 9.34673 0.89543 9.34673 2V2.23999C9.34673 3.08968 8.79899 3.82843 8.04809 4.22606C7.85644 4.32755 7.66873 4.43538 7.48525 4.54928C6.77001 4.99327 5.86592 5.09582 5.13522 4.67776L4.87568 4.52926C3.92225 3.98376 2.7073 4.30929 2.15434 5.25842L1.01467 7.21464C0.45557 8.17432 0.785506 9.40575 1.74953 9.95734L1.96449 10.0803C2.70301 10.5029 3.07213 11.3469 3.04493 12.1974C3.04171 12.2979 3.04009 12.3987 3.04009 12.5C3.04009 12.6013 3.04171 12.7021 3.04493 12.8026C3.07213 13.6531 2.70301 14.4971 1.96449 14.9197L1.74953 15.0427C0.785508 15.5943 0.455571 16.8257 1.01467 17.7854L2.15435 19.7416C2.7073 20.6907 3.92225 21.0162 4.87568 20.4707L5.13527 20.3222C5.86594 19.9042 6.77 20.0067 7.48522 20.4507C7.66871 20.5646 7.85643 20.6724 8.04809 20.7739C8.79899 21.1716 9.34673 21.9103 9.34673 22.76V23C9.34673 24.1046 10.2422 25 11.3467 25H13.6533C14.7578 25 15.6533 24.1046 15.6533 23V22.76C15.6533 21.9103 16.201 21.1716 16.9519 20.7739C17.1436 20.6725 17.3313 20.5646 17.5148 20.4507C18.23 20.0067 19.1341 19.9042 19.8648 20.3222L20.1243 20.4707C21.0778 21.0162 22.2927 20.6907 22.8457 19.7416L23.9853 17.7854C24.5444 16.8257 24.2145 15.5943 23.2505 15.0427L23.0355 14.9197C22.297 14.4971 21.9279 13.6531 21.9551 12.8026C21.9583 12.7021 21.9599 12.6013 21.9599 12.5C21.9599 12.3987 21.9583 12.2979 21.9551 12.1974ZM18.0182 12.5C18.0182 9.47958 15.5477 7.03125 12.5 7.03125C9.45226 7.03125 6.98177 9.47958 6.98177 12.5C6.98177 15.5204 9.45226 17.9688 12.5 17.9688C15.5477 17.9688 18.0182 15.5204 18.0182 12.5Z" fill="#78909C"/>
</svg>
