<svg width="22" height="23" viewBox="0 0 22 23" fill="none" xmlns="http://www.w3.org/2000/svg">
<path d="M17.4745 12.5151C17.4706 12.8666 17.1809 13.1499 16.8248 13.1497H5.17518C4.81914 13.1499 4.5294 12.8666 4.52552 12.5151V11.2312C4.52942 10.8797 4.81914 10.5964 5.17518 10.5966H16.8248C17.1809 10.5964 17.4706 10.8797 17.4745 11.2312V12.5151ZM12.2922 18.1377L12.292 18.1375C12.2922 18.4893 12.0055 18.7756 11.6497 18.7794H5.17524C4.81661 18.7794 4.52558 18.4921 4.52558 18.1375V16.861C4.52558 16.5066 4.8166 16.2191 5.17524 16.2191H11.6497C12.0055 16.2229 12.2922 16.5092 12.292 16.861L12.2922 18.1377ZM11 3.30658C11.4817 3.30658 11.9435 3.49564 12.284 3.83244C12.6242 4.16923 12.8151 4.62574 12.8144 5.10167C12.814 5.57764 12.6218 6.03371 12.2805 6.36965C11.9394 6.70538 11.477 6.89337 10.9953 6.8923C10.5138 6.89101 10.0522 6.70067 9.71285 6.36302C9.37329 6.02536 9.18368 5.56824 9.18541 5.09225C9.18736 4.61799 9.37936 4.16383 9.71957 3.82921C10.0596 3.49433 10.52 3.30658 11 3.30658ZM20.708 3.81574H16.0059C15.6159 2.34781 14.5863 1.1267 13.1953 0.48287C11.8044 -0.160957 10.1956 -0.160957 8.80465 0.48287C7.41368 1.1267 6.38413 2.34775 5.99409 3.81574H1.29196C0.949362 3.81574 0.62061 3.9502 0.378353 4.18957C0.136084 4.42916 0 4.75376 0 5.09228V21.7235C0 22.062 0.136084 22.3866 0.378353 22.6262C0.620621 22.8655 0.949351 23 1.29196 23H20.708C21.0506 23 21.3794 22.8655 21.6216 22.6262C21.8639 22.3866 22 22.062 22 21.7235V5.09228C22 4.75377 21.8639 4.42916 21.6216 4.18957C21.3794 3.9502 21.0506 3.81574 20.708 3.81574Z" fill="#476FFF"/>
</svg>
