<svg width="21" height="21" viewBox="0 0 21 21" fill="none" xmlns="http://www.w3.org/2000/svg">
<path d="M1.68006 2.30754C-0.560019 4.85117 -0.560019 8.74839 1.68006 11.2687C3.71001 13.5556 6.86004 14.1391 9.45003 13.0189L11.9468 15.516C11.9935 15.5627 12.04 15.586 12.1102 15.586H14.4902C14.6302 15.586 14.7236 15.6793 14.7236 15.8195V18.0598C14.7236 18.1998 14.8169 18.2933 14.957 18.2933H17.1971C17.3371 18.2933 17.4305 18.3865 17.4305 18.5267L17.43 20.7666C17.43 20.9066 17.5233 21 17.6634 21H20.7666C20.9066 21 21 20.9067 21 20.7666V17.5461C21 17.4761 20.9767 17.4294 20.93 17.3827L13.02 9.47163C14.0935 6.99802 13.6034 4.01092 11.5967 2.00399C8.82001 -0.773085 4.2934 -0.656362 1.68008 2.30741L1.68006 2.30754ZM5.90338 5.43458C5.22679 6.43796 3.75672 6.43796 3.07997 5.43458C2.7066 4.87446 2.7066 4.10432 3.07997 3.54437C3.75655 2.54099 5.22663 2.54099 5.90338 3.54437C6.27674 4.10436 6.27674 4.87446 5.90338 5.43458Z" fill="#476FFF"/>
</svg>
